<?xml version="1.0" encoding="UTF-8"?>
<svg id="Camada_1" xmlns="http://www.w3.org/2000/svg" version="1.1" xmlns:xlink="http://www.w3.org/1999/xlink" viewBox="0 0 869.5 670.8">
  <!-- Generator: Adobe Illustrator 29.0.0, SVG Export Plug-In . SVG Version: 2.1.0 Build 186)  -->
  <defs>
    <style>
      .st0, .st1 {
        fill: #5851bc;
      }

      .st2 {
        fill: #170d54;
      }

      .st3 {
        fill: #38287c;
      }

      .st4 {
        stroke: #f2a181;
        stroke-width: .2px;
      }

      .st4, .st5, .st6, .st7 {
        fill: none;
      }

      .st4, .st6, .st7 {
        stroke-miterlimit: 10;
      }

      .st8 {
        fill: #241111;
      }

      .st8, .st9, .st10, .st11, .st12, .st6, .st13, .st14, .st15, .st16, .st1, .st17, .st18 {
        isolation: isolate;
      }

      .st8, .st12 {
        opacity: 0;
      }

      .st19 {
        fill: #9aa3f4;
      }

      .st20 {
        fill: url(#Gradiente_sem_nome_5);
      }

      .st21 {
        fill: #31475a;
      }

      .st22 {
        fill: url(#Gradiente_sem_nome_9);
      }

      .st23 {
        fill: #cfcfff;
      }

      .st9, .st11, .st6, .st24 {
        opacity: .4;
      }

      .st9, .st25 {
        fill: #a2a7f4;
      }

      .st26 {
        fill: #4a74c8;
      }

      .st27 {
        fill: #e0d9ff;
      }

      .st28 {
        fill: #f94f4f;
      }

      .st29 {
        fill: #5e5dbb;
      }

      .st10, .st30, .st11, .st31, .st32 {
        fill: #fff;
      }

      .st10, .st13, .st14, .st16, .st1 {
        opacity: .3;
      }

      .st33 {
        fill: url(#Gradiente_sem_nome_2);
      }

      .st34 {
        fill: #8784ef;
      }

      .st35 {
        fill: url(#Gradiente_sem_nome_11);
      }

      .st36 {
        fill: #f5f5fc;
      }

      .st37, .st15 {
        opacity: .2;
      }

      .st5 {
        stroke: #f0890a;
        stroke-linecap: round;
        stroke-linejoin: round;
        stroke-width: .8px;
      }

      .st31 {
        fill-rule: evenodd;
      }

      .st32 {
        stroke-miterlimit: 4;
        stroke-width: 1px;
      }

      .st32, .st6 {
        stroke: #fff;
      }

      .st38 {
        fill: #ffbe9d;
      }

      .st39 {
        fill: #eae6ff;
      }

      .st40 {
        fill: url(#Gradiente_sem_nome);
      }

      .st41 {
        fill: #fca70c;
      }

      .st42 {
        fill: #303d47;
      }

      .st43 {
        fill: #fdcdcd;
      }

      .st44 {
        fill: url(#Gradiente_sem_nome_12);
      }

      .st13 {
        fill: #7762ef;
      }

      .st45 {
        fill: #d7d7ff;
      }

      .st46 {
        fill: #d5dbda;
      }

      .st47 {
        fill: #3b2e7a;
      }

      .st14, .st48 {
        fill: #385369;
      }

      .st49 {
        fill: #f0890a;
      }

      .st50 {
        fill: #ed9c80;
      }

      .st15 {
        fill: #ce4a30;
      }

      .st51 {
        fill: #e5e5ff;
      }

      .st16, .st52 {
        fill: #ffb9b0;
      }

      .st53 {
        fill: #3939d3;
      }

      .st54 {
        fill: #b4b4db;
      }

      .st55 {
        fill: #fff1f1;
      }

      .st56 {
        fill: url(#Gradiente_sem_nome_7);
      }

      .st57 {
        fill: #efefef;
      }

      .st58 {
        fill: #5045af;
      }

      .st59 {
        fill: #747e88;
      }

      .st60 {
        opacity: .3;
      }

      .st61 {
        fill: url(#Gradiente_sem_nome_4);
      }

      .st62 {
        fill: #e9e6ff;
      }

      .st63 {
        fill: #b1affd;
      }

      .st64 {
        fill: url(#Gradiente_sem_nome_6);
      }

      .st65 {
        fill: #bdc6f9;
      }

      .st66 {
        fill: #f75c5c;
      }

      .st67 {
        fill: url(#Gradiente_sem_nome_10);
      }

      .st68 {
        fill: #24446e;
      }

      .st69 {
        fill: #3876c8;
      }

      .st70 {
        fill: #453087;
      }

      .st71 {
        fill: #38424d;
      }

      .st72 {
        fill: #5f8be3;
      }

      .st73 {
        fill: url(#Gradiente_sem_nome_3);
      }

      .st74 {
        fill: #fefefe;
      }

      .st17 {
        opacity: .2;
      }

      .st18 {
        fill: #f75b5b;
        opacity: .6;
      }

      .st75 {
        fill: #9090f4;
      }

      .st76 {
        fill: url(#Gradiente_sem_nome_8);
      }

      .st7 {
        stroke: #9aa3f4;
        stroke-width: 1.5px;
      }

      .st77 {
        fill: #483a99;
      }

      .st78 {
        fill: #0898e7;
      }

      .st79 {
        fill: #b9b9f8;
      }

      .st80 {
        fill: #f2a181;
      }

      .st81 {
        fill: #e2deff;
      }

      .st82 {
        fill: #e8e8e8;
      }
    </style>
    <linearGradient id="Gradiente_sem_nome" data-name="Gradiente sem nome" x1="-638.3" y1="-390.2" x2="-638.3" y2="-389.2" gradientTransform="translate(185655.4 9532.1) scale(290.1 23.8)" gradientUnits="userSpaceOnUse">
      <stop offset="0" stop-color="#f94f4f"/>
      <stop offset="1" stop-color="#f66363"/>
    </linearGradient>
    <linearGradient id="Gradiente_sem_nome_2" data-name="Gradiente sem nome 2" x1="-589.7" y1="-390.4" x2="-589.7" y2="-389.4" gradientTransform="translate(7752 12793.3) scale(12.6 31.7)" gradientUnits="userSpaceOnUse">
      <stop offset="0" stop-color="#f94f4f"/>
      <stop offset="1" stop-color="#f66363"/>
    </linearGradient>
    <linearGradient id="Gradiente_sem_nome_3" data-name="Gradiente sem nome 3" x1="-589.7" y1="-390.6" x2="-589.7" y2="-389.6" gradientTransform="translate(7808.9 21252.4) scale(12.6 53.4)" gradientUnits="userSpaceOnUse">
      <stop offset="0" stop-color="#f94f4f"/>
      <stop offset="1" stop-color="#f66363"/>
    </linearGradient>
    <linearGradient id="Gradiente_sem_nome_4" data-name="Gradiente sem nome 4" x1="-566.6" y1="-388.8" x2="-566.6" y2="-387.8" gradientTransform="translate(5330.1 3796.4) scale(8.7)" gradientUnits="userSpaceOnUse">
      <stop offset="0" stop-color="#f94f4f"/>
      <stop offset="1" stop-color="#f66363"/>
    </linearGradient>
    <linearGradient id="Gradiente_sem_nome_5" data-name="Gradiente sem nome 5" x1="-566.6" y1="-388.8" x2="-566.6" y2="-387.8" gradientTransform="translate(5381.2 3796.4) scale(8.7)" gradientUnits="userSpaceOnUse">
      <stop offset="0" stop-color="#f94f4f"/>
      <stop offset="1" stop-color="#f66363"/>
    </linearGradient>
    <linearGradient id="Gradiente_sem_nome_6" data-name="Gradiente sem nome 6" x1="-566.6" y1="-388.8" x2="-566.6" y2="-387.8" gradientTransform="translate(5427.1 3796.4) scale(8.7)" gradientUnits="userSpaceOnUse">
      <stop offset="0" stop-color="#f94f4f"/>
      <stop offset="1" stop-color="#f66363"/>
    </linearGradient>
    <linearGradient id="Gradiente_sem_nome_7" data-name="Gradiente sem nome 7" x1="-638.3" y1="-390.2" x2="-638.3" y2="-389.2" gradientTransform="translate(185584.2 9566.8) scale(290.1 23.8)" gradientUnits="userSpaceOnUse">
      <stop offset="0" stop-color="#f94f4f"/>
      <stop offset="1" stop-color="#f66363"/>
    </linearGradient>
    <linearGradient id="Gradiente_sem_nome_8" data-name="Gradiente sem nome 8" x1="-623.3" y1="-390.7" x2="-623.3" y2="-389.7" gradientTransform="translate(24002.4 26815.7) scale(37.2 67.3)" gradientUnits="userSpaceOnUse">
      <stop offset="0" stop-color="#f94f4f"/>
      <stop offset="1" stop-color="#f66363"/>
    </linearGradient>
    <linearGradient id="Gradiente_sem_nome_9" data-name="Gradiente sem nome 9" x1="-623.1" y1="-390.7" x2="-623.1" y2="-389.7" gradientTransform="translate(23814.4 26699.3) scale(37 67.1)" gradientUnits="userSpaceOnUse">
      <stop offset="0" stop-color="#f94f4f"/>
      <stop offset="1" stop-color="#f66363"/>
    </linearGradient>
    <linearGradient id="Gradiente_sem_nome_10" data-name="Gradiente sem nome 10" x1="-633.2" y1="-390.8" x2="-633.2" y2="-389.8" gradientTransform="translate(55979.8 36783.6) scale(87.9 92.9)" gradientUnits="userSpaceOnUse">
      <stop offset="0" stop-color="#f94f4f"/>
      <stop offset="1" stop-color="#f66363"/>
    </linearGradient>
    <linearGradient id="Gradiente_sem_nome_11" data-name="Gradiente sem nome 11" x1="-568.5" y1="-389.3" x2="-568.5" y2="-388.3" gradientTransform="translate(5828.2 4559.1) scale(8.9 10.9)" gradientUnits="userSpaceOnUse">
      <stop offset="0" stop-color="#f94f4f"/>
      <stop offset="1" stop-color="#f66363"/>
    </linearGradient>
    <linearGradient id="Gradiente_sem_nome_12" data-name="Gradiente sem nome 12" x1="-623.5" y1="-390.5" x2="-623.5" y2="-389.5" gradientTransform="translate(24203.5 14128.1) scale(37.5 35.4)" gradientUnits="userSpaceOnUse">
      <stop offset="0" stop-color="#f94f4f"/>
      <stop offset="1" stop-color="#f66363"/>
    </linearGradient>
  </defs>
  <path class="st36" d="M862.4,401.4c-15-42-38.7-54.7-61.3-81.6-27.5-32.9-46.1-56.7-38.9-99,11.7-69.1,16.7-241.3-166.2-218.8-65.5,8.1-117.3,58.3-155,108.4-32,42.7-89.7,46.4-136.1,56.4-57,12.2-115.1,30.7-167.9,57.7C28.4,280.2-4,360.3.4,462.7c1.3,31,5.7,79.7,58,136.7,70.6,77,173.1,87.3,296.5,51.9,28.2-8.1,55-20.8,82.7-30.3,28.9-9.9,58.9-16.4,89.3-19.4,70.9-6.8,144.4,5.5,212.4-15.6,36.1-11.3,68.8-31.6,95-58.9,32.5-34,44-81.5,28.2-125.7h0Z"/>
  <path class="st51" d="M58.4,559.4c0,10.1,128.4,18.3,286.8,18.3s286.8-8.2,286.8-18.3-128.4-18.3-286.8-18.3-286.8,8.2-286.8,18.3h0Z"/>
  <path class="st51" d="M233.4,582.1c0,6.3-32.6,11.5-72.8,11.5s-72.8-5.1-72.8-11.5,32.6-11.5,72.8-11.5,72.8,5.1,72.8,11.5Z"/>
  <ellipse class="st51" cx="717.6" cy="584.5" rx="122.1" ry="9.1"/>
  <path class="st45" d="M87,433.6l-4.7,65.7h62.7l-4.3-65.8h-53.7q0,.1,0,.1Z"/>
  <path class="st39" d="M99.5,439.3c0-1.1,1.1-1.9,2.2-1.8,1-.2,1.9.5,2.1,1.5.2,1-.5,2-1.5,2.1-.2,0-.4,0-.6,0-1.1,0-2.1-.7-2.2-1.8ZM101.6,438.2c-.6-.2-1.3.2-1.4.8-.2.6.2,1.3.8,1.4.2,0,.4,0,.6,0,.6.2,1.3-.2,1.4-.8.2-.6-.2-1.3-.8-1.4-.2,0-.4,0-.6,0Z"/>
  <path class="st39" d="M120.8,439.3h.3-.3c0-.4.2-.9.5-1.2.4-.4,1-.6,1.6-.6h0c1.1,0,2.1.7,2.2,1.8,0,.5-.2,1-.7,1.3-.4.3-.9.5-1.5.5-1.1,0-2.1-.7-2.2-1.8h0ZM123,438.2c-.4,0-.8.1-1.2.4-.2.2-.3.4-.3.7.1.7.8,1.2,1.5,1.1.4,0,.8-.1,1.1-.4.2-.2.4-.5.4-.8-.1-.7-.8-1.2-1.4-1.1h0Z"/>
  <path class="st39" d="M111.6,452.5c.2,0,.4,0,.6,0,3.9-.1,6.9-1.4,8.9-3.8,3.3-3.9,2.5-9.4,2.5-9.6,0-.4-.4-.6-.8-.6h0c-.4,0-.6.4-.6.8,0,0,.7,5.1-2.2,8.5-1.7,2-4.4,3.1-7.9,3.2-3.4.1-5.9-.8-7.6-2.7-3.1-3.4-2.3-9-2.3-9.1,0-.4-.2-.7-.6-.8-.4,0-.7.2-.8.6,0,.3-.9,6.3,2.6,10.2,1.9,2.1,4.6,3.1,8.1,3.1h0Z"/>
  <path class="st65" d="M116.5,452l-7.5,48.8,68-.2-6.9-48.8h-53.7Z"/>
  <path class="st34" d="M91.3,534.4c-7.6,0-13.8,6.2-13.8,13.8s6.2,13.8,13.8,13.8,13.8-6.2,13.8-13.8h0c0-7.6-6.2-13.8-13.8-13.8ZM91.3,554.6c-3.5,0-6.4-2.9-6.4-6.4s2.9-6.4,6.4-6.4c3.5,0,6.4,2.9,6.4,6.4s-2.8,6.4-6.4,6.4h0Z"/>
  <path class="st19" d="M89,534.4c-7.6,0-13.8,6.2-13.8,13.8s6.2,13.8,13.8,13.8,13.8-6.2,13.8-13.8h0c0-7.6-6.2-13.8-13.8-13.8ZM89,554.6c-3.5,0-6.4-2.9-6.4-6.4s2.9-6.4,6.4-6.4c3.5,0,6.4,2.9,6.4,6.4s-2.8,6.4-6.4,6.4h0Z"/>
  <path class="st34" d="M169.3,534.4c-7.6,0-13.8,6.2-13.8,13.8s6.2,13.8,13.8,13.8,13.8-6.2,13.8-13.8h0c0-7.6-6.2-13.8-13.8-13.8ZM169.3,554.6c-3.5,0-6.4-2.9-6.4-6.4,0-3.5,2.9-6.4,6.4-6.4,3.5,0,6.4,2.9,6.4,6.4s-2.9,6.4-6.4,6.4h0,0Z"/>
  <path class="st19" d="M167,534.4c-7.6,0-13.8,6.2-13.8,13.8s6.2,13.8,13.8,13.8,13.8-6.2,13.8-13.8h0c0-7.6-6.2-13.8-13.8-13.8ZM167,554.6c-3.5,0-6.4-2.9-6.4-6.4,0-3.5,2.9-6.4,6.4-6.4,3.5,0,6.4,2.9,6.4,6.4s-2.9,6.4-6.4,6.4h0,0Z"/>
  <g>
    <path class="st7" d="M273.4,379.6h-41.5c-4.4,0-8.4,2.2-10.7,6l-25.1,40.2"/>
    <path class="st7" d="M84.8,499.7h92.7c4.9,0,9.1-3.6,9.9-8.5l9.6-59.8c.9-5.5-2.9-10.6-8.3-11.5-.5,0-1.1-.1-1.6-.1h-111.8c-5.6,0-10.1,4.5-10,10,0,.5,0,1.1.1,1.6l9.6,59.8c.8,4.9,5,8.5,9.9,8.5h0Z"/>
    <path class="st7" d="M131.1,419.8v79.9"/>
    <path class="st7" d="M192.4,459.8h-122.6"/>
    <path class="st7" d="M167.7,419.8l-7.9,79.9"/>
    <path class="st7" d="M96.3,419.8l7.3,79.9"/>
    <path class="st7" d="M185.1,496.1l15,22.3c2.8,4.2,1.7,9.9-2.5,12.7-1.5,1-3.3,1.6-5.1,1.6h-122.8"/>
  </g>
  <g>
    <path class="st26" d="M380.7,506.7h127.1v34.2h-127.1v-34.2h0Z"/>
    <rect class="st72" x="224.6" y="200.9" width="440.6" height="317" rx="9.4" ry="9.4"/>
    <rect class="st55" x="236.9" y="212.4" width="414.6" height="275" rx="5.8" ry="5.8"/>
    <path class="st72" d="M333.4,537.9h221.7c4,0,7.3,3.3,7.3,7.3h0v14.2h-236.3v-14.2c0-4,3.3-7.3,7.3-7.3h0Z"/>
    <rect class="st10" x="335.9" y="231.4" width="290.1" height="195" rx="5" ry="5"/>
    <g class="st37">
      <path class="st41" d="M363.5,373.9h12.6v31.7h-12.6v-31.7Z"/>
      <path class="st63" d="M392,346h12.6v59.6h-12.6v-59.6Z"/>
      <path class="st41" d="M420.5,352.2h12.6v53.4h-12.6v-53.4h0Z"/>
      <path class="st63" d="M448.9,322h12.6v83.6h-12.6v-83.6Z"/>
      <path class="st12" d="M392,346h5.8v59.6h-5.8v-59.6Z"/>
      <path class="st12" d="M363.5,373.9h5.8v31.7h-5.8v-31.7Z"/>
      <path class="st17" d="M448.9,322h5.8v83.6h-5.8v-83.6Z"/>
      <path class="st12" d="M420.5,352.2h5.8v53.4h-5.8v-53.4h0Z"/>
      <path class="st46" d="M468.3,414.3h-113.1v-120.4h1.7v118.7h111.4v1.7h0Z"/>
      <path class="st46" d="M366.8,359l-1.1-1.3,29.6-26.6,27.4,6,29.7-33,1.3,1.1-30.3,33.8-27.5-6-28.9,26h0Z"/>
      <path class="st46" d="M455.9,310.1l-8.4-8,10.8-2.9-2.4,10.9Z"/>
      <path class="st63" d="M479,371.6h8.7v8.7h-8.7v-8.7Z"/>
      <path class="st41" d="M479,386.8h8.7v8.7h-8.7v-8.7Z"/>
      <path class="st57" d="M490,390.6h27.5v4.9h-27.5v-4.9h0Z"/>
      <path class="st57" d="M490,375.4h27.5v4.9h-27.5v-4.9h0Z"/>
      <path class="st63" d="M530,371.6h8.7v8.7h-8.7v-8.7Z"/>
      <path class="st41" d="M530,386.8h8.7v8.7h-8.7v-8.7Z"/>
      <path class="st57" d="M541.1,390.6h27.5v4.9h-27.5v-4.9Z"/>
      <path class="st57" d="M541.1,375.4h27.5v4.9h-27.5v-4.9Z"/>
      <path class="st63" d="M576,371.6h8.7v8.7h-8.7v-8.7Z"/>
      <path class="st41" d="M576,386.8h8.7v8.7h-8.7v-8.7Z"/>
      <g>
        <path class="st57" d="M587,390.6h18.1v4.9h-18.1v-4.9Z"/>
        <path class="st57" d="M587,375.4h18.1v4.9h-18.1v-4.9Z"/>
        <path class="st57" d="M480.6,288.7h124.5v2.3h-124.5v-2.3Z"/>
        <path class="st57" d="M355.2,260.9h250v5.2h-250v-5.2h0Z"/>
        <path class="st57" d="M480.2,295.7h124.9v2.3h-124.9v-2.3h0Z"/>
        <path class="st57" d="M480.2,281.6h124.9v2.3h-124.9v-2.3h0Z"/>
        <path class="st57" d="M480.2,302.8h124.9v2.3h-124.9v-2.3h0Z"/>
        <path class="st57" d="M480.2,309.8h124.9v2.3h-124.9v-2.3h0Z"/>
        <path class="st57" d="M480.2,316.9h124.9v2.3h-124.9v-2.3h0Z"/>
        <path class="st57" d="M480.2,323.9h124.9v2.3h-124.9v-2.3h0Z"/>
        <path class="st57" d="M480.2,331h124.9v2.3h-124.9v-2.3h0Z"/>
        <path class="st57" d="M480.2,338h124.9v2.3h-124.9v-2.3h0Z"/>
        <path class="st57" d="M495.5,345h109.6v2.3h-109.6v-2.3Z"/>
      </g>
      <path class="st40" d="M613.3,231.4h-264.7c-7,0-12.7,5.7-12.7,12.7h0v11.1h290.1v-11.1c0-7-5.7-12.7-12.7-12.7Z"/>
      <path class="st23" d="M588.7,243.8c0,2-1.6,3.7-3.7,3.7s-3.7-1.6-3.7-3.7,1.6-3.7,3.7-3.7h0c2,0,3.7,1.6,3.7,3.7h0Z"/>
      <circle class="st23" cx="600" cy="243.8" r="3.7"/>
      <circle class="st23" cx="614.9" cy="243.8" r="3.7"/>
    </g>
    <rect class="st18" x="258.9" y="274.5" width="290.1" height="195" rx="5" ry="5"/>
    <rect class="st30" x="264.8" y="267" width="290.1" height="195" rx="5" ry="5"/>
    <path class="st33" d="M292.3,409.4h12.6v31.7h-12.6v-31.7Z"/>
    <path class="st63" d="M320.8,381.6h12.6v59.6h-12.6v-59.6Z"/>
    <path class="st73" d="M349.3,387.7h12.6v53.4h-12.6v-53.4h0Z"/>
    <path class="st63" d="M377.8,357.6h12.6v83.6h-12.6v-83.6Z"/>
    <path class="st12" d="M320.8,381.6h5.8v59.6h-5.8v-59.6Z"/>
    <path class="st12" d="M292.3,409.4h5.8v31.7h-5.8v-31.7Z"/>
    <path class="st17" d="M377.8,357.6h5.8v83.6h-5.8v-83.6Z"/>
    <path class="st8" d="M349.3,387.7h5.8v53.4h-5.8v-53.4h0Z"/>
    <path class="st46" d="M397.1,449.9h-113.1v-109.7h1.7v108h111.4v1.7h0Z"/>
    <path class="st46" d="M295.6,394.5l-1.1-1.3,29.6-26.6,27.4,6,29.7-33,1.3,1.1-30.4,33.8-27.5-6-28.9,26h0Z"/>
    <path class="st46" d="M384.7,345.6l-8.4-8,10.8-2.9-2.4,10.9Z"/>
    <path class="st63" d="M407.8,407.2h8.7v8.7h-8.7v-8.7Z"/>
    <path class="st61" d="M407.8,422.4h8.7v8.7h-8.7v-8.7Z"/>
    <path class="st57" d="M418.9,426.1h27.5v4.9h-27.5v-4.9Z"/>
    <path class="st57" d="M418.9,410.9h27.5v4.9h-27.5v-4.9Z"/>
    <path class="st63" d="M458.8,407.2h8.7v8.7h-8.7v-8.7Z"/>
    <path class="st20" d="M458.8,422.4h8.7v8.7h-8.7v-8.7Z"/>
    <path class="st57" d="M469.9,426.1h27.5v4.9h-27.5v-4.9Z"/>
    <path class="st57" d="M469.9,410.9h27.5v4.9h-27.5v-4.9Z"/>
    <path class="st63" d="M504.8,407.2h8.7v8.7h-8.7v-8.7h0Z"/>
    <path class="st64" d="M504.8,422.4h8.7v8.7h-8.7v-8.7h0Z"/>
    <g>
      <path class="st57" d="M515.9,426.1h18.1v4.9h-18.1v-4.9Z"/>
      <path class="st57" d="M515.9,410.9h18.1v4.9h-18.1v-4.9Z"/>
      <path class="st57" d="M409.4,324.2h124.5v2.3h-124.5v-2.3Z"/>
      <path class="st57" d="M284,296.5h250v5.2h-250v-5.2h0Z"/>
      <path class="st57" d="M409,331.3h124.9v2.3h-124.9v-2.3h0Z"/>
      <path class="st57" d="M409,317.2h124.9v2.3h-124.9v-2.3h0Z"/>
      <path class="st57" d="M409,338.3h124.9v2.3h-124.9v-2.3h0Z"/>
      <path class="st57" d="M409,345.4h124.9v2.3h-124.9v-2.3h0Z"/>
      <path class="st57" d="M409,352.4h124.9v2.3h-124.9v-2.3h0Z"/>
      <path class="st57" d="M409,359.5h124.9v2.3h-124.9v-2.3h0Z"/>
      <path class="st57" d="M409,366.5h124.9v2.3h-124.9v-2.3h0Z"/>
      <path class="st57" d="M409,373.5h124.9v2.3h-124.9v-2.3h0Z"/>
      <path class="st57" d="M424.3,380.6h109.6v2.3h-109.6v-2.3h0Z"/>
    </g>
    <path class="st56" d="M542.2,267h-264.7c-7,0-12.7,5.7-12.7,12.7h0v11.1h290.1v-11.1c0-7-5.7-12.7-12.7-12.7h0Z"/>
    <path class="st30" d="M517.6,279.3c0,2-1.6,3.7-3.7,3.7s-3.7-1.6-3.7-3.7,1.6-3.7,3.7-3.7,3.7,1.6,3.7,3.7Z"/>
    <path class="st30" d="M532.5,279.3c0,2-1.6,3.7-3.7,3.7s-3.7-1.6-3.7-3.7,1.6-3.7,3.7-3.7h0c2,0,3.7,1.6,3.7,3.7Z"/>
    <path class="st30" d="M547.4,279.3c0,2-1.6,3.7-3.7,3.7s-3.7-1.6-3.7-3.7,1.6-3.7,3.7-3.7h0c2,0,3.7,1.6,3.7,3.7h0Z"/>
    <path class="st1" d="M640.1,201.1h-67.9c.5,22,.8,44.1,1.1,66.1,0,3.4,0,6.9-1.2,10h0c-.9,0-.5.2-.8,1.8,0,0,0,0,0,0-2.8,4.5-8.1,6.9-13.3,8.1,0,.2,0,.5,0,.7-.6.5-.9,1.3-.5,2,.3.7,4.2,1.7,9.5,1.2,2-.3,4-.9,5.9-1.6.8-.4,1.5-.9,2.2-1.5.7,0,1.3-.2,2-.5l.2.2,6.1-2.6s-.7-3.8-1.2-5.8c0-.3-.2-.6-.4-.9,5.1-13.8,9.1-28,11.9-42.4-1.1,17.9-7.5,54.2-8,55.5-1.4,3.1-4.4,5.1-7.7,5.4-1.4.1-8.5-.3-7.8,3,.2.8,3.9,2.4,9.2,2.8,2,0,4.1-.1,6.1-.6,1.4-.4,2.7-1.1,3.8-2.1l.8,1.1,6.5-1.5s0-1.7,0-3.7c-.1-1.4-.6-2.8-1.4-3.9v-3.7c0,0,3.7-.4,3.7-.4,0,0,7.2-23.2,10.6-31.1,1.5-3.2,2.8-6.5,3.9-9.9,1-4,1.2-8.2,1.5-12.4.6-7.6,2-15.1,4.2-22.3,0-.5.3-.9.6-1.3.7-.6,1.5-.9,2.3-.8,9.1-.8,13.3.7,19-1.1,7.5-2.3,8.3-5.8,8.7-5.9-2.9-1.2-6.1-1.9-9.3-1.9h0Z"/>
    <path class="st14" d="M665.2,353.1v-78.8c-10.7,15.4-21.3,29.2-32.1,44.5-4.7,6.7-22.9,28.8-10.5,37.6,3.2,2.3,8.7,2.2,11.5,2.4,9.9.8,19.7-2.2,29.4-5.2.5-.2,1.1-.4,1.7-.5h0Z"/>
    <path class="st1" d="M665.2,370.1l-6.5.5v-.4c-.1,0-5.2.4-5.2.4l-1.5-4.3c-1.1-2.6-3.6-4.2-6.4-4.1-1.9,0-3.5,1.5-3.5,3.5,0,.5,0,.9.3,1.4.3.8,1,2.9,1.5,4.3l-5.4.4v.4c.1,0-10.9.9-10.9.9-1.7,0-4.3,2.3-3.8,3.8v.2c0,.1.1.3.1.4l9.5,26.9-.2,113.4h11.1l21-81.5v-66.3h0ZM648,369.3c-1.6,0-3-.8-3.6-2.3-.4-1,0-2.1,1-2.6.2-.1.5-.2.8-.1,1.6,0,3,.8,3.6,2.3.4,1,0,2.1-1,2.6-.2.1-.5.1-.8.1h0Z"/>
    <path class="st16" d="M252.3,323.4c-2.5,2.7-5.4,8.5-6.6,11-1.2,2.5-2.6,3.9-6.1,5.5-4.9,2.2-10,4.3-15,6.3v12.9c10.1-6.1,19.3-11.8,19.5-11.9,7.8,3,14.2-3.5,16.3-8.1.9-2.1-.5-2.9-.5-3.9,0-.5.6-3.5.5-3.9-.6-2.7-7.9-.3-7.3-1.6.5-1.8,1.6-3.4,3-4.5,3.6-2.4,6.3-5.1,6.3-6.2,0-1.8-9.3,3.6-10.2,4.5h0Z"/>
  </g>
  <g>
    <rect class="st25" x="645.3" y="388.8" width="171.3" height="198.1" rx="7" ry="7"/>
    <g>
      <rect class="st75" x="661.2" y="409.5" width="144.9" height="40.7" rx="1.8" ry="1.8"/>
      <rect class="st75" x="661.2" y="464.6" width="37.2" height="25.8" rx="1.8" ry="1.8"/>
      <rect class="st75" x="715" y="464.6" width="37.2" height="25.8" rx="1.8" ry="1.8"/>
      <rect class="st75" x="768.8" y="464.6" width="37.2" height="25.8" rx="1.8" ry="1.8"/>
      <rect class="st75" x="661.2" y="506.1" width="37.2" height="25.8" rx="1.8" ry="1.8"/>
      <rect class="st75" x="715" y="506.1" width="37.2" height="25.8" rx="1.8" ry="1.8"/>
      <rect class="st75" x="661.2" y="547.6" width="37.2" height="25.8" rx="1.8" ry="1.8"/>
      <rect class="st75" x="715" y="547.6" width="37.2" height="25.8" rx="1.8" ry="1.8"/>
      <rect class="st75" x="768.8" y="506.1" width="37.2" height="67.3" rx="1.8" ry="1.8"/>
    </g>
    <g class="st24">
      <path class="st81" d="M658.6,411.4c0-2.5,2-4.5,4.5-4.5h135.9c2.5,0,4.5,2,4.5,4.5v31.7c0,2.5-2,4.5-4.5,4.5h-135.9"/>
      <rect class="st81" x="658.6" y="462" width="37.2" height="25.8" rx="1.8" ry="1.8"/>
      <rect class="st81" x="712.4" y="462" width="37.2" height="25.8" rx="1.8" ry="1.8"/>
      <rect class="st81" x="766.2" y="462" width="37.2" height="25.8" rx="1.8" ry="1.8"/>
      <rect class="st81" x="658.6" y="503.5" width="37.2" height="25.8" rx="1.8" ry="1.8"/>
      <rect class="st81" x="712.4" y="503.5" width="37.2" height="25.8" rx="1.8" ry="1.8"/>
      <rect class="st81" x="658.6" y="545" width="37.2" height="25.8" rx="1.8" ry="1.8"/>
      <rect class="st81" x="712.4" y="545" width="37.2" height="25.8" rx="1.8" ry="1.8"/>
    </g>
    <rect class="st76" x="766.2" y="503.5" width="37.2" height="67.3" rx="1.8" ry="1.8"/>
    <path class="st22" d="M768.8,569v-58.4c0-2.5,2-4.5,4.5-4.5h28.2c.5,0,1.1.1,1.6.3-.7-1.8-2.3-2.9-4.2-2.9h-28.3c-2.5,0-4.5,2-4.5,4.5v58.4c0,1.9,1.2,3.5,2.9,4.2-.2-.5-.3-1-.3-1.6h0Z"/>
    <path class="st1" d="M645.3,435.5l4.6,12.1h19.2s-1.3,52.2-1.4,62c0,9.8,8,77.3,8,77.3h11.1l-1.2-85.1,15.8-43.7s11.9,58.5,16.8,68.2,31.3,60.5,31.3,60.5h10.2l-26.2-112-11.2-38.9-56.7-26.5-20.3,2"/>
  </g>
  <path class="st67" d="M261.8,478.9l-8.9,92.7h87.9s-8.5-92.9-8.5-92.9l-70.5.2h0Z"/>
  <path class="st0" d="M277.2,487.3c.1-1.7,1.6-2.9,3.3-2.8h0c1.5-.3,3,.8,3.3,2.3s-.8,3-2.3,3.3c-.3,0-.6,0-.9,0h0c-1.7.1-3.1-1.1-3.3-2.8h0ZM280.4,485.6c-1-.2-1.9.3-2.2,1.3-.2,1,.3,1.9,1.3,2.2.3,0,.6,0,.9,0h0c1,.2,1.9-.3,2.2-1.3.2-1-.3-1.9-1.3-2.2-.3,0-.6,0-.9,0h0Z"/>
  <path class="st0" d="M309.9,487.3h.5-.5c0-.7.3-1.3.8-1.8.7-.6,1.6-1,2.5-1h0c1.7-.1,3.1,1.1,3.3,2.8,0,.8-.4,1.5-1,2-.6.5-1.5.8-2.3.8h0c-1.7.1-3.1-1.1-3.3-2.8h0ZM313.2,485.5c-.6,0-1.3.2-1.8.7-.3.3-.5.6-.5,1,.2,1.1,1.1,1.8,2.2,1.7h0c.6,0,1.2-.2,1.6-.5.4-.3.6-.7.6-1.2-.2-1.1-1.1-1.8-2.2-1.7h0Z"/>
  <path class="st68" d="M175.4,269.9c3.4,5.9.5,13.9,3.9,19.8,1.4,2.3,3.7,4.2,4.4,6.8.8,3.2-1.1,6.4-4.3,7.2-1.4.4-2.9.2-4.2-.5-.4-.3-.9-.5-1.3-.6-1.7-.5-3.2,1-4.7,2-1.8,1.3-4.1,1.7-6.2,1.1-2.6-.9-4.3-3.5-5.1-6.2-2.5-7.4-.7-15.5,1.6-22.9,1.1-3.7,2.8-7.8,6.4-9.2"/>
  <path class="st52" d="M254.4,332.4c0,.8,1.3,1.5.5,3.2-1.9,3.8-7.6,9.1-14.5,6.7-.3.1-38,21.9-40.9,21.9s-22.7-18.7-29.2-41.9c-1.6-5.5-.9-12,4.2-14.8,0,0,4.3,1,7.1,6.3,4.3,8.1,17.1,34.9,20,35.9,3.6-2.4,20.8-7.5,34.8-13.5,3.1-1.4,4.3-2.5,5.4-4.5,1.1-2,3.6-6.8,5.8-9.1.8-.8,9-5.2,9-3.7s-2.4,3.1-5.6,5.1c-1.3.9-2.2,2.2-2.7,3.8-.5,1.1,5.9-.9,6.5,1.4,0,.3-.5,2.8-.5,3.2h0Z"/>
  <path class="st69" d="M173,306.8c4.9,1.1,9,4.3,11.3,8.7.6,1.1,1.1,2.3,1.5,3.5,2,5.1,4.8,9.7,6.8,14.9-2.8,2.2-6.1,3.2-8.9,4.3-2.6,1-5.5,1.4-8.3,1.1-.5,0-.9-.1-1.4-.3-.6-.3-1.1-.7-1.4-1.2-.9-1-1.7-2-2.5-3-.8-.8-1.3-1.8-1.7-2.9-.3-1.5-.1-3.1.4-4.5"/>
  <path class="st13" d="M177.9,320.8c-.2-.2-.4-.4-.6-.5-.5-.1-1.1.1-1.4.6-.2.5-.3,1-.3,1.6,0,2.1.4,4.1,1,6.1l-.6,10.8h0c2.6.2,5.3-.2,7.7-1.1,1.2-.4,2.4-.9,3.7-1.4-1.3-6.1-5.4-11.2-9.5-16h0Z"/>
  <path class="st52" d="M161.2,296.1s-.1,6.8.9,7.2c1.4.6,2.9,1,4.4,1.4v14c0,0-18.6-2.8-18.6-2.8l-12.8-7.1s13.3-4.4,13.4-5.7-.7-8.8-.7-8.8"/>
  <path class="st52" d="M132.6,498.4h0c-5.1,24.2-2.7,57.4-3.8,75.6.3,0,6.9.9,6.9.9,0,0,15.8-76.7,18.6-91.4.2-.9.3-1.9.4-2.8.7-11-9.3-11.6-14.9-2.5-1,1.6-1.8,3.2-2.6,4.9-.3.7-.6,1.5-.9,2.2h0c-1,2.5-1.8,5.1-2.5,7.7v.3c-.3.8-.5,1.6-.7,2.4v.2c-.2.8-.4,1.6-.6,2.5h0Z"/>
  <path class="st52" d="M162.4,411.6c-.2,2-1.2,11.5-2.5,22.7-1.1,9.4-2.3,20.1-3.2,28.5-.7,6.3-1.2,11.4-1.4,13.7-.1,1.4-.3,2.7-.6,4.1h0c-2.4,11.1-10,11.7-14.7,9.2-.6-.3-1.2-.7-1.8-1.2-1-.8-1.7-2-2-3.2h0c-.3-2.3-.6-5.4-.9-9.1h0s0,0,0,0h0c-.6-7.2-1-16.5-1.5-25.5-.5-11-.8-21.7-.9-27.7,0-.4,0-.7,0-1,0-18.4,16.8-30.2,27.3-24.5.1,0,.2.1.4.2.1,0,.3.2.4.2,1.2.8,1.6,3.5,1.6,6.7,0,2.3-.1,4.8-.3,6.9h0Z"/>
  <path class="st52" d="M136.7,481l-1.3-4.8s0,0,0,0c0,5.6-.4,11.3-1.6,16.8v.3c-.2.8-.4,1.6-.7,2.4v.2c-.3.8-.5,1.6-.6,2.5h0c0,2.2,4.6-7.5,5.7-9.7.1-.3.2-.5.2-.5l-1.3-5-.5-2.1h0Z"/>
  <path class="st52" d="M173.1,503h0c-.5,25.4,7.3,55.1,9.4,73.5.2,0,6.4-.8,6.4-.8,0,0,1.2-77.5,1.2-92.9,0-1,0-2-.1-2.9-1.3-11.2-10.3-9.2-13.8,1.2-.6,1.8-1.1,3.7-1.5,5.5-.2.8-.3,1.6-.4,2.5h0c-.4,2.6-.7,5.4-.9,8.3v.3c0,.8-.1,1.6-.2,2.5v.2c0,.9,0,1.7,0,2.6h0Z"/>
  <path class="st52" d="M178.4,492.6c-.6-.2-1.2-.4-1.8-.8-1.1-.6-1.9-1.6-2.3-2.7h0c-.7-2.2-1.5-5.2-2.3-8.9-.6-2.4-.6-2.4,0,0h0c-1.7-7.1-3.7-16.1-5.6-24.9-2.3-10.9-4.4-21.4-5.5-27.3,0-.3-1-4.7-1.1-5-3.2-18.5,11.2-30.5,21.7-27,.1,0,.3.1.4.1,2.1.9,2.7,8.3,3.2,13.3s4,56.9,4.9,66.3c.1,1.4.2,2.8.2,4.2-.2,11.6-7,14.1-11.6,12.8h0Z"/>
  <path class="st52" d="M173.9,484.7l-2-4.5s0,0,0,0c1,5.6,1.5,11.4,1.4,17.1v.3c0,.8,0,1.7-.2,2.5v.2c-.1.9-.1,1.7,0,2.6h0c.4,2.2,2.9-8.6,3.5-11.1,0-.3.1-.5.1-.5l-2-4.7-.8-2h0Z"/>
  <path class="st69" d="M141.7,376.1s-13.6,17.2-12.2,34.6c.6,7.2,1.5,13.6,2.3,20.8.1,1,1.8,16.3,1.3,16.3,0,0,28,8.6,55-2.7,0-1.9,2.2-37.3-12.4-71.1-11.2,1.5-22.6,2.2-33.9,2.1h0Z"/>
  <path class="st69" d="M184.2,336.3c-.1,4.9-2.7,7.9-6.5,12.1-.5.7-1.6,11.8-2.1,19.1-.2,3.8,1.4,6.2,0,6.5-5.4,4.7-25,8.6-33.9,2.1.9-8-2.6-25.5-5-34.4-.4-1.4-.7-2.5-1-3.4-2.2-6.8-6.3-28.5-3.3-29.4.6-.2,1.5-.4,2.6-.8,4.7-1.4,11.6-3.8,11.6-3.8,0,0,4.1,12,14.6,13.5,5.8-2.4,5.3-9.7,5.2-13,1.9.5,2.7,1,8.6,2.8,1.6,2.4.2,7.3,2.9,14.6.6,1.8,6.5,8.2,6.4,14.2h0Z"/>
  <path class="st52" d="M174.7,268.5s1.1,13-1.2,19.9c-1.6,5.1-8.4,9.8-14.1,9.7-15.6,0-18.4-21.2-18.3-22.2s23-9.9,23-9.9l10.6,2.5Z"/>
  <path class="st58" d="M204.4,583.8c-5.6,1-11.5-.6-13.9-.1-2,.3-7.2,1.7-9.1,0s-1.6-7.9.6-8.7c.5.2.9.3,1.4.3,2.2.3,4.4.1,6.6-.5,4.2,1.7,4.4,2.5,9.2,3.5,2.1.4,4.1,1,6.1,1.9,2.1,1,2.2,3.2-.9,3.8h0Z"/>
  <path class="st58" d="M144.5,586.2c-5.6-.9-9.1-4-11.5-4.4-2-.4-7.1-1.3-7.6-3.4-.4-1.5,1.1-8,3.5-8,.4.3.8.6,1.2.8,2,1,4.1,1.6,6.4,1.7,3.4,3.1,3.3,3.8,7.5,6.4,1.8,1.1,3.6,2.4,5.1,3.8,1.6,1.6-1.5,3.6-4.6,3.1h0Z"/>
  <path class="st52" d="M63.4,327l5.1-6.1,31.2,27.9s15.2-20.2,19.4-26.6c4.6-7,8.8-12.9,15.5-14.1,1.6,1-.5,25.9-1.3,26.5-9.4,7-27.7,29.7-33.5,30.9-6.7,1.4-36.3-38.6-36.3-38.6h0Z"/>
  <path class="st69" d="M136.9,307s-6.4,0-9.1,2.3-15.8,23-15.8,23c0,2.8,1.3,5.5,3.4,7.2,2.7,2.2,6,3.6,9.4,4.1,0,0,6.6-6.5,10.3-9.5,2.3-1.9,2.5,2.7,2.5,2.7l11.6-11.3-12.3-18.5h0Z"/>
  <path class="st68" d="M133,307.3c-.4-.2-.7-.4-1-.6-1.8-1.1-3.4-2.2-4.2-4.2-1.1-2.9-1.6-7.4,0-10.2,1-1.9,3-3.2,4.3-4.9,1.8-2.4,2.4-5.5,2.5-8.5s0-6,.6-9c1.1-5,2.5-9.8,6.4-13.1,6.2-5.2,18.6-8.3,25.4-2.5,1.2,1.1,1.5,1.9,3.1,2.1,2,0,3.9.6,5.7,1.7,2.2,1.3,4.9,3.1,4.6,6-.2,2-2.5,5.2-4.2,6.2-.7.4-1.6.5-2.4.5-2.6,0-4.8-1.7-7.4-1.4-1.3.1-2.4.8-3.2,1.8-.9,1.1-.8,2.8-1.9,3.8-1.8,1.7-4.5,1.6-6.5,2.7-.4.2-.7.4-.9.7-.2.4-.2.7-.2,1.1v3.3c-1.1-.5-1.2-1.9-2.1-2.6-.9-.6-2.1-.6-3,.2-.8.8-1.3,1.8-1.4,2.9-.1,1.3,0,2.7.6,3.9.7,2.2,2.6,4.2,4.1,2.8,1.1,1.6-.1,4.4-.1,6.2,0,1.5,0,4.4,1.4,5.4,1.3.9,3.3.2,3.4,2.5,0,2.1-2,3.7-4.1,4s-4.1-.5-6.1-1.1-4.2-1.1-6.2-.3c-1.2.5-2.2,1.4-3.5,1.6-1.2.1-2.4-.2-3.4-.8h0Z"/>
  <path class="st52" d="M76.4,328s-7.3-5.9-7.8-7.5-.6-3.3-1.2-4.9c-.9-2.3-2.8-4.1-5.1-5-1.8-.8-.9-1.4-2.9-1-3,.6-4.4,3.5-5.6,5.8-5.1,9.7,8.8,11.5,9.3,11.5,1,0,6.2,5.9,6.2,5.9"/>
  <path class="st49" d="M53.3,323.3l5,3.4c.6.4,1.5.2,1.9-.4,0,0,0,0,0,0l11-18.5-6.5-3.7-11.8,17.3c-.4.6-.3,1.5.3,1.9h0,0Z"/>
  <path class="st49" d="M35.4,284.1l1.7,1.2,7-10.2-1.7-1.2c-2.5-1.7-6-.8-7.9,2-1.9,2.8-1.5,6.4,1,8.1h0Z"/>
  <path class="st41" d="M29,296.5l32.1,4.9,7.3-10.7-16.2-28s-23.2,33.9-23.2,33.9Z"/>
  <path class="st49" d="M31,297l30,4.4,2.9-4.3-25.3-11.4-7.7,11.2Z"/>
  <path class="st41" d="M74.3,309.2c1.9,1.1,4.4.5,5.6-1.4l1.3-1.9c1.4-1.8,1.1-4.3-.7-5.7-1.9-1.1-4.4-.5-5.6,1.4l-1.3,1.9c-1.4,1.8-1.1,4.3.7,5.7Z"/>
  <path class="st41" d="M74.9,301.6l-1.3,1.9c-1.4,1.5-1.3,4,.2,5.4,1.6,1.4,3.9,1.3,5.4-.2.2-.3.4-.6.6-.9l1.3-1.9c0-.1.2-.3.3-.5-1.2,1.7-3.5,2.1-5.2,1s-2.1-3.5-1-5.2c-.1.1-.2.3-.3.4h0Z"/>
  <path class="st49" d="M27.9,297.6c1.1.7,2.6.3,3.3-.8l22-32.1c.8-1,.6-2.5-.4-3.3-1.1-.6-2.6-.3-3.3.9l-22,32.1c-.8,1-.6,2.5.4,3.3h0Z"/>
  <path class="st41" d="M53.4,261.9l-18.3,26.7c-.7,1.1-2.1,1.5-3.3.9-.2-.2-.4-.4-.6-.6l-3.7,5.4c-.8.9-.8,2.3.2,3.1s2.3.8,3.1-.2c.1-.1.2-.3.3-.5l22-32.1c.6-.8.7-1.9.2-2.7h0Z"/>
  <path class="st41" d="M63.9,307l2.1,1.4c3.1,2.1,7.5.9,9.9-2.6l2.1-3c2.4-3.5,1.9-8-1.2-10.1l-2.1-1.4c-3.1-2.1-7.5-.9-9.9,2.6l-2.1,3c-2.4,3.5-1.9,8,1.2,10.1h0Z"/>
  <path class="st49" d="M62.8,296.7l-3.1,4.5c-.8,1-.6,2.4.4,3.2l9.7,6.6c1.1.6,2.5.3,3.1-.8l3.1-4.5c-.7,1.1-2,1.4-3.1.8l-9.7-6.6c-1-.8-1.2-2.2-.4-3.2h0Z"/>
  <path class="st52" d="M54.4,318.7c-.4-2.6.2-5.4,1.8-7.5.5-.7,1.2-1.3,1.8-1.9.3-.3.7-.6,1.1-.7.8-.1,1.7,0,2.3.5.8.4,1.5,1.1,1.9,1.9.5,1.3-.4,2.4-1.4,3.1-.1,0-.2.1-.3.3,0,.2,0,.4.2.6.5.7.8,1.6.7,2.5,0,.8-.8,1.4-1.6,1.3,0,0,0,0-.1,0-.4,0-.9-.2-1,0,0,.1,0,.2,0,.3.1.8,0,1.5-.6,2.1-.1.1-.3.3-.5.3-.2,0-.3,0-.5,0-.6-.2-1.2-.4-1.7-.8"/>
  <path class="st52" d="M68.5,320.9c-.3-1.3-.5-2.6-.6-3.9,0-3-1.7-5.8-4.2-7.4-.2-.1-.4-.2-.7-.2-.3,0-.5.3-.6.7,0,.3,0,.6.1.9.3.9,1.6,2.7,1.2,3.6-.7,1.4-1,3-1,4.6,0,1.4.7,3.6,2.3,3.9"/>
  <path class="st5" d="M31.3,247.1l6.5,15.2"/>
  <path class="st5" d="M17.8,260.7l13.2,9.9"/>
  <path class="st5" d="M9.3,279.1l16.5,1.6"/>
  <path class="st52" d="M536.6,118.9s-5.9-4.2-6.1-5.9-4.3-8.8-5.7-10.3-8.2-3.8-9.7-4-10,.5-8.9,1.7,6.6.7,7.6,1.4l1,.6s-1,1.4-.6,2.3-1.8,2.2-1,3.7-.3,1.4.4,2.9c1.2,2.5,4.4,4,5.3,3.3.6,1.5,3.1,4.6,5.3,4.4s7.8,5,7.8,5"/>
  <path class="st52" d="M626.8,89.2c.2,4,0,10.9,1,11.9s4.8.9,4.8.9c0,0-13.1,16.6-14.3,15.7s-16.7-13.6-13.2-14.2,6.9-.5,6.8-2.3-.2-3.6-.3-5.4"/>
  <path class="st41" d="M641.7,177.8s-25.6,2.9-31.5,3-5.6-3-5.6-3c-.3-6.5-1.4-21.8-2.6-26.9-1.1-4.8-1.6-6.6-2.6-11.2-2.2-10.2-2.1-12.2-4.4-24.8l15.3-12.3s1.6,4.7,8,4.8c8.6.1,11.2-5.9,11.2-5.9l20.8,13.8,2,33.7-2.5,27.7"/>
  <path class="st52" d="M627.1,85.6c-.5,2-1.1,4-1.8,5.9-1.3,3.5-3.3,4.8-7.1,4.9l-7.8.2c-2,0-4.5.1-6.1-1.3s-1.6-3.7-2-5.7c-.5-2.5-.8-5-1.1-7.5-.6-4.9-.8-9.8-.7-14.7,0-.7,0-1.3.2-2,0-.3.2-.5.3-.7.3-.2.6-.3.9-.4,4.9-.8,9.9-1.1,14.8-1,3.5,0,7.2.5,10,2.6,2.8,2.2,4.1,5.7,5.3,9,.2.5.3,1.2-.1,1.6"/>
  <path class="st50" d="M569.6,269.1c.4,2.3.9,4.6,1.5,6.8.7,1.7,6.4.1,6.8-1s-1.8-9.4-1.8-9.4"/>
  <path class="st3" d="M579.9,276.4c.5,1.9,1.1,5.5,1.1,5.5l-5.7,2.5-.9-.9c-.9,1-2,1.9-3.2,2.5-1.8.7-3.6,1.2-5.5,1.5-5,.5-8.7-.4-9-1.1-1.2-2.9,5.4-3.7,6.7-4,3.1-.8,5.5-3.2,6.3-6.3.3-1.5,0-1.8.8-1.7.5,0,1.1.3,1.4.7,1,1.1,2.6,1.5,4,.9.8-.3,1.5-.9,2-1.7,1,.2,1.8,1,2,2h0Z"/>
  <path class="st70" d="M594.9,202.6c-9.6,1.7-19.5,1.9-29.1.7,1.3,3.6,4.3,8.2,5.5,13.3,3.9,16.8,5.2,39.4,6.2,53.4,0,0-1.9,3.6-7.8.9-8.9-22.1-24.5-66.8-24.4-76.5.2-12.4,31-15.3,53.6-18.4"/>
  <path class="st3" d="M634.3,177.8c7.1,5.2-39.4,24.7-39.4,24.7-5,1-10.1,1.5-15.2,1.4-.5-.9-.9-1.9-1.1-2.9-.3-1.4-.1-2.8-.4-4.1-.6-2.6-2.3-4.9-4.7-6.3-2.3-1.3-4.9-2.1-7.6-2.5-6.3-1-17.3-.3-17.3-.3,14-10.3,42.6-11.6,55.9-12.5,2.5,4.2,28.7,1.6,29.8,2.3h0Z"/>
  <path class="st50" d="M584.4,280.9c0,2.3,0,4.7.3,7,.4,1.8,6.3,1.2,6.8.2s-.1-9.6-.1-9.6"/>
  <path class="st3" d="M593.2,289.8c.2,1.9.2,5.6.2,5.6l-6,1.5-.8-1c-1,.9-2.3,1.5-3.5,1.9-1.9.4-3.8.6-5.7.5-5-.3-8.5-1.9-8.6-2.6-.7-3.1,5.9-2.7,7.3-2.8,3.2-.3,5.9-2.2,7.2-5.1.5-1.4.2-1.8,1-1.6.5.1,1,.4,1.3.9.8,1.3,2.3,2,3.8,1.6.9-.2,1.7-.6,2.3-1.3,1,.4,1.6,1.3,1.6,2.3h0Z"/>
  <path class="st70" d="M649.8,176.8c-10.5.9-21,1.2-31.5,1-4,0-34.5,5.7-37.4,10.9-4.8,8.5,3.1,58.1,2.4,93.5,0,0,3.7,3,10.1.2,1.6-17.4,11.9-58.6,4.8-77.8,16.8,2.2,30.3,4.4,45.6-.6,3.6-1.2,6.2-3.7,7.8-8.3,1.6-4.6.8-14.8-1.8-18.9h0Z"/>
  <path class="st41" d="M610.2,102.7s-3.7.2-4.4.3c-3.1.2-6.1.7-9,1.7-4.2,1.5-7.1,5.4-10.5,8.4-3.2,2.9-20.1,18.9-23.2,19.5s-30.7-18.3-30.7-18.3l-6.7,6.7s29.9,27.7,38.8,27.7c4.3,0,28.2-12.6,35.9-17.4l9.8-28.6h0Z"/>
  <path class="st15" d="M564.6,143.4c-6.2.4-34.3-21.2-37.6-23.7l-1.3,1.3s29.9,27.6,38.8,27.7c3.6,0,20.8-8.7,30.8-14.4l2.6-1.5-1.6-9.3s-25.3,19.6-31.8,19.9Z"/>
  <path class="st59" d="M535.9,182.3h68.5l-12.3-40c-.7-2.2-2.7-3.7-5-3.7h-60c-1.9,0-3.4,1.5-3.4,3.4s0,.7.2,1l12.1,39.3h0Z"/>
  <path class="st71" d="M535,182.3h67.5l-12.3-40c-.7-2.2-2.7-3.7-5-3.7h-60c-1.9,0-3.4,1.5-3.4,3.4s0,.7.2,1l11.8,38.4c.2.6.7,1,1.3,1h0Z"/>
  <path class="st15" d="M640.4,122c-3.4,15.4-4,27.5-5,38.5-12,4.6-16.8,11.6-28.5,16.8,0,0-9.2-1.5-10.2,1.9-.6,2,10.8,3.6,10.8,3.6,10.8,0,39.5-7.9,41.4-8.4s7.6-36.9,7.8-56.7c0-2.8,0-5.8-1.8-8-1-1.1-2.2-2-3.5-2.6-7.6-3.9-13.3-5-21.9-5.5"/>
  <path class="st52" d="M608.5,179.6c-1.3-1.6-3.6-1.9-5.7-1.8-1.5,0-3.1.2-4.6.4-.7,0-1.5.3-1.6,1s3.3,0,5.2.5c-3.5.3-7.1.4-10.6.3-.4,0-.8,0-1.2.1-.4.1-.7.5-.7.9,0,.3.2.6.5.8,1,.8,2.3,1.3,3.6,1.5,5.4.9,11.1.8,16.1-1.4"/>
  <path class="st41" d="M639.6,121.7c-.3,16.5-1.5,24-1.1,40.5-8.3,1.8-19.7,11.1-31.4,16.4-.4,1.4-.2,2.9.4,4.3.9.3,39.5-9.1,42.6-11.9,2.8-2.6,6.4-33.4,6.7-53.2,0-2.8,0-5.8-1.8-8-1-1.1-2.2-2-3.5-2.6-7.6-3.9-13.3-5-21.9-5.5"/>
  <path class="st6" d="M569.9,161.1c.2,3.5-3.9,6.4-9.3,6.4s-9.9-2.8-10.2-6.4,3.9-6.4,9.3-6.4,9.9,2.8,10.2,6.4Z"/>
  <ellipse class="st32" cx="560.2" cy="161.2" rx="3.5" ry="6.2" transform="translate(377.2 714.6) rotate(-87.8)"/>
  <path class="st77" d="M615,75.1c-.1-.6-1.5-.7-2.9-.6s-5,.6-5.8,1.2-.7,1-1.1,1.1-.4-.4-1.3-.8-3-.1-4.4,0-2.7.5-2.7,1.1c0,.7.2,1.3.5,1.9.3.2.3.2,1.4,2.6.4,1.4,1.8,2.2,3.2,1.8,0,0,0,0,0,0,2.3-.5,2.4-3.1,2.6-4.1s.3-1.2.7-1.3.6,0,1,1.1.8,3.3,3.1,3.4c3,.2,4.3-.9,4.8-2.8.6-2.6.4-2.7.7-2.9.8,0,1.5,0,2.3.2v-.8c-.8-.4-1.5-.8-2.2-1.2h0ZM604,80.4c0,1.4-.9,2.6-2.2,2.8-1.4.2-2-.6-2.8-2.3-.5-1-.7-2.1-.5-3.2.2-.4,1-.4,2.7-.5s2.3-.2,2.6.6c.2.9.2,1.8.2,2.7h0ZM613.9,78.9c-.3,1.9-1,2.8-2.9,3.1-2.7.3-3.2-.7-3.6-2-.3-.9-.5-1.8-.5-2.7,0-.8.7-.9,2.3-1.2s4-.7,4.3-.4c.5,1,.6,2.1.4,3.2h0Z"/>
  <path class="st77" d="M633.3,70.9c-.2-1.4-.4-2.7-.8-4.1-.8-3.5-3.2-6.5-6.3-8.3-4.4-2.2-9.5-2.7-14.3-1.4-2.6.7-3.6,2.1-4.9,2.1-1.3-.2-2.5-.7-3.7-1.2-10.2-3.7-8.5,6.3-7.4,9.1.5,1.2,2.8,2.1,3.1,2.6s.3,3,.5,4.1c.2.7.6,1.2,1.3,1.5,0,0,0-3.2.1-3.7,0-1.2.6-2.3,1.5-3,1.1-.6,2.4-.9,3.7-1,2.6,0,5.1.5,7.5,1.2,1.9,1.6,2.4,5.4,2.9,7.6.2,1,.5,1.7.9,1.7.3-3,1.4-3.1,3.2-2.1,1,.6,1.5,2.5,1.5,4.1,0,1.9-1,4.1-3.1,4.5-.7.2,1.5,4.3,2.5,5.3.3.4.7.7,1.1.9.4.2.8.4,1.2.5l1.5.4c.6.2,1.3.3,2,.2,1.1-.3,1.7-1.4,2.1-2.5.8-1.7,1.7-3.3,2.4-5,1.5-4.3,2-9,1.4-13.5h0Z"/>
  <path class="st72" d="M817.9,222.7h-129.7l15.5-11.5v-56.1c0-4.7,3.8-8.5,8.5-8.5h105.7c4.7,0,8.5,3.8,8.5,8.5v59.1c0,4.7-3.8,8.5-8.5,8.5h0Z"/>
  <path class="st11" d="M755.8,157.6h59.2v5.7h-59.2v-5.7Z"/>
  <path class="st11" d="M755.8,166.1h59.2v5.7h-59.2v-5.7Z"/>
  <path class="st11" d="M755.8,174.5h59.2v5.7h-59.2v-5.7Z"/>
  <path class="st11" d="M755.8,182.8h59.2v5.7h-59.2v-5.7Z"/>
  <path class="st11" d="M755.8,192.7h41.3v5.7h-41.3v-5.7Z"/>
  <rect class="st79" x="714" y="157.6" width="37.2" height="43.5" rx="3.4" ry="3.4"/>
  <path class="st9" d="M714,206.5h37.2v4.7h-37.2v-4.7h0Z"/>
  <path class="st30" d="M736.2,185.8h-13.5c-.8,0-1.4-.5-1.6-1.2l-2.6-9.6c-.2-.9.3-1.8,1.2-2.1.1,0,.3,0,.4,0h18.7c.9,0,1.7.8,1.7,1.7,0,.1,0,.3,0,.4l-2.6,9.6c-.2.7-.9,1.2-1.6,1.2h0Z"/>
  <path class="st30" d="M738.6,188h-16.3c-.2,0-.3-.1-.3-.3s.2-.3.3-.3h16l5.7-19.7c0-.1.2-.2.3-.2h3.5c.2,0,.3.1.3.3s-.2.3-.3.3h-3.3l-5.7,19.7c0,.1-.2.2-.3.2h0Z"/>
  <path class="st30" d="M724.8,190.6c0,1.1-.9,2-2,2s-2-.9-2-2,.9-2,2-2h0c1.1,0,2,.9,2,2Z"/>
  <circle class="st30" cx="737.2" cy="190.6" r="2"/>
  <path class="st43" d="M336.2,144.4h165.2l-19.8-14.6V39.4c0-6-4.8-10.8-10.8-10.8h-134.6c-6,0-10.8,4.8-10.8,10.8h0v94.2c0,6,4.8,10.8,10.8,10.8h0Z"/>
  <g class="st24">
    <path class="st30" d="M415.3,52.6h-75.5v-7.2h75.5v7.2Z"/>
    <path class="st30" d="M415.3,63.3h-75.5v-7.2h75.5v7.2Z"/>
    <path class="st30" d="M415.3,74.1h-75.5v-7.2h75.5v7.2Z"/>
    <path class="st30" d="M415.3,84.7h-75.5v-7.2h75.5v7.2Z"/>
    <path class="st30" d="M415.3,95.2h-75.5v-7.2h75.5v7.2Z"/>
    <path class="st30" d="M415.3,114.3h-75.5v-7.2h75.5v7.2Z"/>
    <path class="st30" d="M468.6,125.7h-128.8v-7.2h128.8v7.2Z"/>
  </g>
  <rect class="st66" x="421.2" y="45.3" width="47.4" height="55.5" rx="4.3" ry="4.3"/>
  <path class="st11" d="M468.6,113.6h-47.4v-5.9h47.4v5.9Z"/>
  <ellipse class="st36" cx="718.3" cy="612.4" rx="72.8" ry="7.7"/>
  <path class="st71" d="M679.2,601.5c-.6,1.2-3.5,3.9-7.6,5.8s-12.7,2.7-7.9,4.3,10.3.6,13.2.2c2.9-.4,5.9-.6,8.9-.5,4.4,0,4.4-.3,3.8-5.2-.8-6.8-8.4-8.2-10.4-4.4h0Z"/>
  <path class="st71" d="M758.7,599.1c-.2,1.4,1.7,5.5-1.8,8.6s-11.4,6.3-6.2,6.4c4.4.2,8.9-.7,13-2.4,2.7-1.3.5-3.4,3.8-4.4,4.4-1.4,3.5-4.6,1.2-6.6-2.9-6.5-9.3-6-10.1-1.6h0Z"/>
  <path class="st42" d="M742,460.5s10.5-30.7-19.2-56c0,0-15.9,6.3-28.6,7.1-10,.6-15.1-.3-15.1-.3,0,0-.8,27.3-.9,42l63.8,7.3Z"/>
  <path class="st42" d="M675.7,511.6c-.6-13.7,14.3-11.9,19.8-1.7,11.4,21.2-4.2,70.1-6.2,93.3-2.1.8-5.7,1.5-7.9.5-1-.6-1.8-1.5-2.3-2.5.3-28.4-2.8-74.9-3.4-89.6h0Z"/>
  <path class="st42" d="M695.1,513.6c-1.7,5.6-20.7,11.5-19.2-8.9.7-9.1,2.5-59.1,2.8-63.9s1.2-11.9,3.5-12.8c11.7-4.4,32.3,10.8,29.2,29-2,12.1-12.8,45-16.3,56.6h0Z"/>
  <path class="st42" d="M725,521.4c-4.6-13,10.3-15.2,18.8-7.3,19.8,18.7,20.6,62.8,25.5,85.5-2.6,1.6-5.6,2.4-8.7,2.5-.9,0-1.8-.5-2.4-1.2-8.1-27.2-28.3-65.7-33.2-79.5h0Z"/>
  <path class="st42" d="M744.6,517.2c.5,5.8-15.3,17.9-21.6-1.6-2.8-8.6-14.6-59.8-16.1-64.4s-1.1-14.1.8-15.8c9.2-8.5,29.8-1,33.8,16.9,2.7,12,2.1,52.7,3.2,64.8h0Z"/>
  <path class="st80" d="M663,293.4c.5-.6,1.1-1.1,1.6-1.8,3.8-4.8,4.3-9.1,7.8-14.6.7-1.7,1.6-3.3,2.5-4.8,1.6-1.9,3.5-3.4,5.7-4.6,1.6-.9.2,2.7.2,2.7,0,0,1.4-2,2.7-1.9.5,0,.6,3.1.6,3.6,0,4.2-.9,8.4-2.8,12.1-.5.8-.9,1.8-1,2.8,1.2-.2,2.4-.8,3.3-1.6,1-.7,2.3-1.4,3.4-1-.2.5-.4,1-.7,1.4-1.5,2.8-3.2,5.8-6,7.1-1.7.8-3.7,1-5.3,1.8-3,1.6-4.5,5.3-7.5,6.8"/>
  <rect class="st29" x="668.9" y="275" width="23.9" height="13" rx=".6" ry=".6" transform="translate(158.5 801.1) rotate(-67.3)"/>
  <path class="st54" d="M680.4,269.7l10,4.2-8.2,19.7-10-4.2,8.2-19.7Z"/>
  <path class="st48" d="M690.4,312.8c-4.9.3-9.8,1.1-14.5,2.5-10.3,3.1-13.9,7.9-17.5,9.9,6.9-8.8,14.7-27.5,14.7-27.5,0,0-9.3-7.6-10.4-5.8s-40.2,47.6-39,55c.5,3,5,6.1,9,5.9,11.1-.4,24-4.4,37.5-8.8,5.9-1.9,7.8,2.2,7.8,2.2"/>
  <path class="st80" d="M673.9,277c.4.4.7,1,.7,1.6.3,2.2.7,4.5-.2,6.6-.6,1.3-1.5,2.5-2.7,3.4-1.2,1.1-2.6,2-4,2.8"/>
  <path class="st2" d="M690.6,260.5c-2.6.8-4,4.1-4.9,6.4-1,2.8-1.7,5.7-2,8.7-.4,2-.2,4.1.4,6.1.5,1,1,1.8,1.7,2.7.3.5.8.9,1.2,1.3.5.4,1.1.5,1.7.3.8-.3,1.1-1.3,1.4-2.1,1.5-5.5,3.2-11,6.2-15.8"/>
  <path class="st80" d="M687.7,277.9c0-1.8-1.9-2.9-3.5-1.1-1.3,1.5-1.7,4.3-1.7,6.4,0,2.5,1.9,3,3.5,3.4"/>
  <path class="st48" d="M670.3,321.8c3.2-3.7,13.5-9.8,27.1-9.4,9.4.3,35.1,1.9,38,8.2,1.5,3.2,3,36.2.9,47.6-1.6,8.6-5.7,29.8-5.7,34.9s2.8,7.3,1.5,8.8c-2.9,3.3-22.5,4.7-31.7,4.7s-22.2-2.2-22.9-4.8c-1-3.9,1.6-3.8,2-7.9s1.4-30.6-.1-35c-2.7-7.9-4-20.6-6.2-26.4-1.6-4.4-6-17-2.8-20.7h0Z"/>
  <path class="st21" d="M729.1,348.5c1,2,7.6,12.7,7.6,12.7l.3,1.3c-.1,1.9-.3,3.8-.7,5.7-1.6,8.6-5.7,29.8-5.7,34.9s2.6,7.2,1.5,8.8c-2.3,3.1-39.3,10-37.5,1.4.2-.8,31.1-24.4,31.2-25.1,1.4-6.8,2.7-11.6,3.3-16.6,1.5-11.9-1-25,0-23h0Z"/>
  <path class="st38" d="M690,300.6s0,10.7-.5,11.2c-.8.5-1.7,1-2.5,1.4,0,0,1.5,9.3,3.8,8.6s17.8-8.5,17.8-8.5c0,0-2.2-.9-2.2-1.8s2.1-17.8,2.1-17.8"/>
  <path class="st38" d="M700.7,261.7c-2.2.6-8.2-.6-9.8,1.8s-3.1,8.4-3.7,10c-1.2,3.3-2,6.7-2.9,10.1-1.2,4.4-3.1,12.4,1.2,16,.9.9,2,1.5,3.3,1.7,2,.4,4,.8,6.1,1.1,3.1.6,6.6,1.2,9.7.2,4.2-1.4,6.5-7.1,7.5-11l6.1-22.3-17.6-7.8h0Z"/>
  <path class="st82" d="M689.6,326.1s-.9,41.9-2.6,67.4l6.2,8.5,4.2-10.6c.8-21.7-.5-43.5-4-64.9l-3.8-.3h0Z"/>
  <path class="st82" d="M688.2,322.4l.2.6c.3,1.1.7,2.1,1.3,3.1l3.8.3s2.6-1.4,2.9-2.8-4.2-3.8-4.2-3.8l-.5.2c-1.3.5-2.4,1.3-3.3,2.4h0c0,0,0,0,0,0Z"/>
  <path class="st71" d="M706.6,309c1.7,1.2,3.2,2.6,4.3,4.4-1.9,4.5-6.3,12.3-11.2,15.9-1.6-3.9-4.2-7.2-7.7-9.6,0,0,13.2-2.4,14.5-10.7h0Z"/>
  <path class="st71" d="M692.1,319.8c-3.2,1.5-5.9,4-7.5,7.1,0,0-.9-7.1,1-13.3,0,0,3.1-4,4.2-4-.4,5,2.3,10.2,2.3,10.2h0Z"/>
  <path class="st80" d="M692.7,413.3c-4.7.7-6.4,2.5-9,5-.2.2-.4.5-.4.8,0,.4.5.5.9.6,2.2.4,2.5-1,4.6-1.9,1.4-.6,2.7-1.2,4.1-1.8"/>
  <path class="st62" d="M676.8,379.1l16.6,53.2c.4,1,0,2.1-1,2.5-.2.1-.5.2-.8.2l-34.6,3c-1.3,0-2.5-1-2.9-2.2l-17.8-52.4c-.5-1.4,1.6-3.5,3-3.5l34.6-3c1.3,0,2.5,1,2.9,2.2h0Z"/>
  <path class="st27" d="M675.6,380.5l16.4,52.4c.4,1,0,2.1-1,2.5-.2.1-.5.2-.8.2l-34.6,3c-1.3,0-2.5-1-2.9-2.2l-16.4-52.4c-.4-1,0-2.1,1-2.5.2-.1.5-.2.8-.2l34.6-3c1.3,0,2.5,1,2.9,2.2h0Z"/>
  <path class="st30" d="M648,378.8l1.2,4.6,16.2-1.4-1.3-4.6-16.1,1.4h0Z"/>
  <path class="st30" d="M651,374.6c.3,1.1,1.6,5.2,1.6,5.2l7.7-.7-1.6-5.2c-.7-2.2-2.8-3.7-5.1-3.7-2.1.2-3.3,2.2-2.6,4.4h0ZM652.8,374.5c-.4-.9,0-1.9.9-2.3.2,0,.3-.1.5-.1,1.3,0,2.5.8,2.9,2.1.4.9,0,1.9-.9,2.3-.2,0-.3.1-.5.1-1.3,0-2.5-.8-2.9-2.1h0Z"/>
  <path class="st38" d="M705.8,409.5c-3.6.8-13.3,3.6-14.3,4.1-2.2,1.3-4.2,2.9-6.2,4.6-3.6,3.6-1.8,5.4-3.2,10.3,0,.3,0,.5,0,.8,0,.5.7,1,1.4.5.4.6,1.5.2,2-.5,0,.5.7.8,1.8.2.6-.3.5-.3,1.9-1.5,1.2-1,2.5-1.8,3.9-2.4,1.3-.5,2.6-1.1,3.8-1.8,1.5-1,4.1-1.2,5.4-5.4.4-.9,1.1-1.6,2-2l5.9-3.7"/>
  <path class="st48" d="M728.2,341.4c1.5,5.5,7.9,43.5,7.9,43.5l-36.1,26.1,3,7.9s43.2-14.5,46.6-24.4,3.2-54.7-8.8-70.4c-3.8-5-11.5-7.5-11.5-7.5"/>
  <path class="st4" d="M691.2,423.2c-.9.6-1.7,1.2-2.5,1.9-1,1.1-1.8,2.3-2.9,3.6"/>
  <path class="st4" d="M689.2,420.9c-1.2,1-2.2,2.2-3,3.6-.7,1.6-1.5,3.1-2.4,4.6"/>
  <path class="st4" d="M686.9,418.9c-.3.6-1.8,2-2.1,2.5-1,1.9-1.6,3.8-2,5.9"/>
  <path class="st47" d="M714.4,287.9c-1.4-.8-2.5-1.7-3.4-.4-.5.7-.8,1.7-1.6,2-.9.1-1.7-.5-1.9-1.3-.1-.9,0-1.7.3-2.5.6-1.8,1.1-3.6,1.7-5.5.6-1.8,1.1-3.8.4-5.5-.4-.9-1-1.6-1.7-2.2-2.5-1.9-5.3-3.1-8.4-3.6-3-.5-6.1-1.1-9.1-1.9-1.2-.3-2.4-.9-3.5-1.7-1.6-1.4-2.5-3.5-2.5-5.6,0-2.1.7-4.2,1.8-5.9.2.7.5,1.4.9,2.1.4-1,.9-1.9,1.7-2.6.9,4.9,21.5,3.3,26.4,5.4,3.3,1.5,6.1,2.5,6,7.9.1.3.4.6.7.9,3,2.7,4.2,6,4.6,11,.5,6-3,12.5-6.5,17.5-.7,1.2-1.5,2.2-2.5,3-1.4,1-3.1,1.3-4.8,1.1-1.5-.3-4.4-.2-4.5-1.7,0-1.1,2.3-3,2.9-3.9"/>
  <path class="st38" d="M709,293.5c-.3,1,.3,2.1,1.3,2.4.5.2,1.1,0,1.6-.2,2.2-.8,3.8-2.8,4.1-5.1.5-2.6-.9-5.2-3.3-4.5-1.4.5-2.3,1.9-2.2,3.4"/>
  <path class="st80" d="M690,301.6l6.6,1.2c-1.8,1.7-4.2,2.6-6.7,2.5"/>
  <g class="st60">
    <path class="st53" d="M169.4,187.9l8.9,4.5-4.4-10.9"/>
    <path class="st53" d="M141.8,173.9c0,9.8,8.4,17.7,18.8,17.7s18.8-7.9,18.8-17.7-8.4-17.7-18.8-17.7-18.8,7.9-18.8,17.7h0Z"/>
    <path class="st74" d="M156,168.1v12.7c0,.7.6,1.3,1.3,1.3s.5,0,.7-.2l11-6.3c.6-.4.9-1.2.5-1.8-.1-.2-.3-.4-.5-.5l-11-6.3c-.6-.4-1.4-.1-1.8.5-.1.2-.2.4-.2.7h0Z"/>
  </g>
  <g class="st60">
    <path class="st35" d="M783.9,322.6l-8.9,4.5,4.4-10.9"/>
    <path class="st44" d="M811.5,308.7c0,9.8-8.4,17.7-18.8,17.7s-18.8-7.9-18.8-17.7,8.4-17.7,18.8-17.7,18.8,7.9,18.8,17.7Z"/>
    <g>
      <path class="st74" d="M789.3,317.2c4.1,0,8.2.1,12-.1,1.2,0,2.2-1.9.8-2.4.6-.2,1.2-.6,1.5-1.2.3-.6,0-1.3-.6-1.6,0,0,0,0,0,0,1.4.3,2-1.8.9-2.5.6-.4,1-1.1,1.2-1.8.1-.7-.2-1.5-.9-1.9-.5-.2-1-.3-1.5-.2-1.7,0-3.4,0-5.1,0,.5-2.5.6-5.2-.8-7.5-.4-.7-1.5-1.5-2.4-1-.8.5-.6,1.7-.5,2.4,0,3.3-1.7,6.3-4.7,7.8,0,0,.2,6.7.2,10h0Z"/>
      <path class="st74" d="M781.7,307.1h6.2v10h-6.2v-10Z"/>
    </g>
  </g>
  <g class="st60">
    <path class="st78" d="M499.7,168.8l6.5-7-8.9,1.7"/>
    <path class="st78" d="M475.7,170.5c0,7.1,6.1,12.9,13.6,12.9s13.6-5.8,13.6-12.9-6.1-12.9-13.6-12.9-13.6,5.8-13.6,12.9h0Z"/>
    <g>
      <path class="st74" d="M486.7,176.6c2.7,0,5.4,0,7.9,0,.8,0,1.5-1.4.5-1.8.4-.2.8-.5,1-.9.2-.4,0-1-.5-1.2.9.2,1.3-1.3.6-1.8.4-.3.7-.8.8-1.3.1-.5-.1-1.1-.6-1.4-.3-.1-.6-.2-1-.2h-3.3c.4-1.8.3-3.7-.5-5.4-.3-.5-1-1.1-1.5-.7-.5.4-.4,1.2-.4,1.8.1,2.3-1.1,4.4-3,5.6,0,0,.1,4.8.1,7.3h0Z"/>
      <path class="st74" d="M481.7,169.3h4v7.3h-4v-7.3Z"/>
    </g>
  </g>
  <g class="st60">
    <path class="st28" d="M563.1,74.9c6.9-8.7,5.5-21.3-3.2-28.2s-21.3-5.5-28.2,3.2c-6.9,8.7-5.5,21.3,3.2,28.2,6.8,5.4,16.3,5.8,23.6,1l7.8,4.2-3.2-8.3h0Z"/>
    <path class="st30" d="M539,56.9c1.9-1.9,5-1.9,6.9,0h0l1.2,1.3,1.3-1.3c1.9-1.9,5-1.9,6.9,0s1.9,5,0,6.9h0l-4.8,4.7h0c-1.9,1.9-5,1.9-6.9,0l-4.7-4.8c-1.9-1.9-1.9-5,0-6.9h0Z"/>
  </g>
  <g>
    <path class="st30" d="M444.9,53.8c5.3,0,10.1,2.2,13.6,5.6,3.5,3.5,5.6,8.3,5.6,13.6s-2.1,10.1-5.6,13.6c-3.5,3.5-8.3,5.6-13.6,5.6s-10.1-2.2-13.6-5.6-5.6-8.3-5.6-13.6,2.1-10.1,5.6-13.6c3.5-3.5,8.3-5.6,13.6-5.6h0ZM457.7,60.2c-3.3-3.3-7.8-5.3-12.8-5.3s-9.5,2-12.8,5.3c-3.3,3.3-5.3,7.8-5.3,12.8s2,9.5,5.3,12.8c3.3,3.3,7.8,5.3,12.8,5.3s9.5-2,12.8-5.3,5.3-7.8,5.3-12.8-2-9.5-5.3-12.8h0Z"/>
    <path class="st31" d="M435.8,73.4c.5,0,.9.4.9.9s-.4.8-.9.8-.9-.4-.9-.8.4-.9.9-.9h0ZM439.1,79.6c0-.3.3-.6.6-.6s.6.3.6.6-.3.6-.6.6-.6-.3-.6-.6h0ZM442.5,83c0-.3.3-.6.6-.6s.6.3.6.6-.3.6-.6.6-.6-.3-.6-.6h0ZM454,73.4c-.5,0-.9.4-.9.9s.4.8.9.8.9-.4.9-.8-.4-.9-.9-.9h0ZM450.8,79.6c0-.3-.3-.6-.6-.6s-.6.3-.6.6.3.6.6.6.6-.3.6-.6h0ZM447.3,85c0-.3-.3-.6-.6-.6s-.6.3-.6.6.3.6.6.6.6-.3.6-.6h0ZM449.6,73.2v5c-.5.2-.9.7-.9,1.3s.6,1.4,1.5,1.4,1.5-.7,1.5-1.4-.4-1.1-.9-1.3v-5c2.1-.2,3.8-1.9,3.8-4.1h0c0-6.4-4.8-9.5-9.6-9.5-4.8,0-9.6,3.2-9.6,9.5h0c0,2.2,1.7,3.9,3.8,4.1v5c-.5.2-.9.7-.9,1.3s.6,1.4,1.5,1.4,1.5-.7,1.5-1.4-.4-1.1-.9-1.3v-5M446.1,73.2v10.5c-.5.2-.9.7-.9,1.3s.6,1.5,1.5,1.5,1.5-.7,1.5-1.5h0c0-.6-.4-1.1-.9-1.3v-10.5M442.5,73.2v8.4c-.5.2-.9.6-.9,1.3s.6,1.5,1.5,1.5,1.5-.8,1.5-1.5-.4-1.1-.9-1.3v-8.4M453.2,82.2c-.5,0-.9.4-.9.8s.4.8.9.8.9-.4.9-.8-.4-.8-.9-.8h0ZM436.7,82.2c.5,0,.9.4.9.8s-.4.8-.9.8-.9-.4-.9-.8.4-.8.9-.8h0Z"/>
  </g>
  <g>
    <path class="st30" d="M296.8,498c4.5,0,8.5,1.8,11.4,4.7,2.9,2.9,4.7,7,4.7,11.4s-1.8,8.5-4.7,11.4c-2.9,2.9-7,4.7-11.4,4.7s-8.5-1.8-11.4-4.7c-2.9-2.9-4.7-7-4.7-11.4s1.8-8.5,4.7-11.4,7-4.7,11.4-4.7h0ZM307.6,503.4c-2.8-2.7-6.6-4.5-10.8-4.5s-8,1.7-10.7,4.5c-2.8,2.8-4.5,6.6-4.5,10.8s1.7,8,4.5,10.7c2.7,2.8,6.5,4.5,10.7,4.5s8-1.7,10.8-4.5,4.5-6.5,4.5-10.7-1.7-8-4.5-10.8h0Z"/>
    <path class="st31" d="M289.2,514.4c.4,0,.7.3.7.7s-.3.7-.7.7-.7-.3-.7-.7.3-.7.7-.7h0ZM291.9,519.6c0-.3.2-.5.5-.5s.5.2.5.5-.2.5-.5.5-.5-.2-.5-.5h0ZM294.8,522.5c0-.3.2-.5.5-.5s.5.2.5.5-.2.5-.5.5-.5-.2-.5-.5h0ZM304.5,514.4c-.4,0-.7.3-.7.7s.3.7.7.7.7-.3.7-.7-.3-.7-.7-.7h0ZM301.7,519.6c0-.3-.2-.5-.5-.5s-.5.2-.5.5.2.5.5.5.5-.2.5-.5h0ZM298.9,524.2c0-.3-.2-.5-.5-.5s-.5.2-.5.5.2.5.5.5.5-.2.5-.5h0ZM300.7,514.3v4.2c-.4.2-.7.6-.7,1.1s.5,1.2,1.2,1.2,1.2-.5,1.2-1.2-.3-.9-.7-1.1v-4.2c1.8-.1,3.2-1.6,3.2-3.4h0c0-5.3-4-8-8.1-8-4,0-8.1,2.6-8.1,8h0c0,1.8,1.4,3.3,3.2,3.4v4.2c-.4.2-.7.6-.7,1.1s.5,1.2,1.2,1.2,1.2-.5,1.2-1.2-.3-.9-.7-1.1v-4.2M297.9,514.3v8.8c-.4.2-.7.6-.7,1.1s.5,1.2,1.2,1.2,1.2-.6,1.2-1.2h0c0-.5-.3-.9-.7-1.1v-8.8M294.8,514.3v7.1c-.4.2-.7.5-.7,1.1s.5,1.2,1.2,1.2,1.2-.6,1.2-1.2-.3-.9-.7-1.1v-7.1M303.8,521.8c-.4,0-.7.3-.7.7s.3.7.7.7.7-.3.7-.7-.3-.7-.7-.7h0ZM289.9,521.8c.4,0,.7.3.7.7s-.3.7-.7.7-.7-.3-.7-.7.3-.7.7-.7h0Z"/>
  </g>
  <path class="st0" d="M295.9,507.6c.3,0,.6,0,.9,0,6-.2,10.6-2.1,13.6-5.8,5-6,3.9-14.4,3.8-14.7,0-.6-.6-1-1.2-.9s-1,.6-.9,1.2c0,0,1,7.8-3.4,13.1-2.6,3.1-6.7,4.8-12.1,5-5.2.1-9.1-1.2-11.7-4.1-4.7-5.2-3.5-13.8-3.5-13.9,0-.6-.3-1.1-.9-1.2-.6,0-1.1.3-1.2.9h0c0,.4-1.3,9.6,4,15.6,2.9,3.2,7,4.8,12.4,4.8h0Z"/>
  <g>
    <g>
      <path class="st30" d="M272.9,533.4h2.6c.6,0,1.2.1,1.8.4s1,.6,1.4,1.1c.4.5.7,1,1,1.6s.4,1.3.4,2-.1,1.4-.4,2-.5,1.2-1,1.6c-.4.5-.9.8-1.4,1.1-.5.3-1.1.4-1.8.4h-2.6v-10.2h0ZM275.5,542.4c.5,0,.9,0,1.3-.3s.7-.5,1-.8.5-.8.7-1.2.2-1,.2-1.6,0-1.1-.2-1.6c-.2-.5-.4-.9-.7-1.2-.3-.3-.6-.6-1-.8s-.8-.3-1.3-.3h-1.4v7.8h1.4Z"/>
      <path class="st30" d="M284.6,543.7c-.5,0-.9,0-1.3-.3-.4-.2-.7-.5-1-.8s-.5-.7-.6-1.2c-.1-.4-.2-.9-.2-1.4s0-1,.2-1.5c.1-.5.4-.8.6-1.2.3-.3.6-.6,1-.8.4-.2.8-.3,1.2-.3s.8,0,1.2.3c.4.2.7.4.9.7.2.3.5.7.6,1.1.1.4.2.8.2,1.3s0,.2,0,.2c0,0,0,.1,0,.2,0,0,0,.2,0,.2h-4.7c0,.6.3,1.1.6,1.5.4.4.8.6,1.3.6s.5,0,.8-.1.4-.2.6-.3c.2-.1.3-.2.4-.3,0,0,.1-.2.2-.2l.7.7s-.1.2-.2.3c-.1.2-.3.3-.5.5-.2.2-.5.3-.8.4-.3.1-.7.2-1.1.2h0ZM286.2,539.5c0-.6-.2-1-.5-1.4-.3-.4-.7-.5-1.2-.5s-.9.2-1.2.5c-.3.3-.5.8-.6,1.5h3.6Z"/>
      <path class="st30" d="M288.3,536.6h1.3l1.7,5.3h0l1.7-5.3h1.2l-2.4,7h-1.2l-2.4-7h0Z"/>
      <path class="st30" d="M295.7,536.6h1.2v.9h0c.4-.7,1-1.1,1.9-1.1s.8,0,1.1.3.6.4.9.7c.2.3.4.7.6,1.2.1.5.2.9.2,1.5s0,1-.2,1.5c-.1.5-.3.8-.6,1.2s-.5.6-.9.7-.7.3-1.1.3c-.9,0-1.5-.4-1.9-1.1h0v4h-1.2v-10h0ZM298.6,542.6c.3,0,.5,0,.7-.2s.4-.3.6-.5c.2-.2.3-.5.4-.8s.1-.7.1-1,0-.7-.1-1c0-.3-.2-.6-.4-.8-.2-.2-.4-.4-.6-.5s-.5-.2-.7-.2c-.5,0-1,.2-1.3.7-.3.5-.5,1.1-.5,1.8s.2,1.4.5,1.8.8.7,1.3.7h0Z"/>
      <path class="st30" d="M303.4,536.6h1.2v.8h0c0,0,.1-.2.2-.3.1-.1.2-.2.4-.3.1,0,.3-.2.5-.2.2,0,.5-.1.7-.1h.2v1.2h-.4c-.5,0-.9.2-1.3.5-.3.3-.5.8-.5,1.5v3.9h-1.2v-7h0Z"/>
      <path class="st30" d="M310.5,543.7c-.4,0-.8,0-1.2-.3s-.7-.4-1-.8c-.3-.3-.5-.7-.6-1.2-.1-.5-.2-.9-.2-1.5s0-1,.2-1.5c.1-.5.4-.8.6-1.2.3-.3.6-.6,1-.8.4-.2.8-.3,1.2-.3s.8,0,1.2.3.7.4,1,.8c.3.3.5.7.6,1.2.1.5.2.9.2,1.5s0,1-.2,1.5c-.1.5-.4.8-.6,1.2-.3.3-.6.6-1,.8-.4.2-.8.3-1.2.3ZM310.5,542.6c.3,0,.5,0,.8-.2s.4-.3.6-.5c.2-.2.3-.5.4-.8.1-.3.1-.7.1-1s0-.7-.1-1c-.1-.3-.2-.6-.4-.8-.2-.2-.4-.4-.6-.5s-.5-.2-.8-.2-.5,0-.8.2-.4.3-.6.5c-.2.2-.3.5-.4.8-.1.3-.1.7-.1,1s0,.7.1,1,.2.6.4.8.4.4.6.5.5.2.8.2Z"/>
      <path class="st30" d="M317.7,543.7c-.4,0-.8,0-1.1-.3s-.6-.4-.9-.7-.4-.7-.6-1.2c-.1-.5-.2-.9-.2-1.5s0-1,.2-1.5c.1-.5.3-.8.6-1.2s.5-.6.9-.7.7-.3,1.1-.3c.9,0,1.5.4,1.9,1.1h0v-4.1h1.2v10.2h-1.2v-.9h0c-.4.7-1,1.1-1.9,1.1h0ZM317.8,542.6c.5,0,1-.2,1.3-.7.3-.5.5-1.1.5-1.8s-.2-1.4-.5-1.8-.8-.7-1.3-.7-.5,0-.7.2-.4.3-.6.5c-.2.2-.3.5-.4.8,0,.3-.1.7-.1,1s0,.7.1,1,.2.6.4.8.4.4.6.5.5.2.7.2h0Z"/>
    </g>
    <g>
      <path class="st30" d="M284.3,548.3c-.1-.2-.2-.3-.4-.3s-.5.2-.5.4.2.3.4.4h.2c.4.2.7.5.7.9s-.4.8-.9.8-.8-.3-.9-.8h.3c0,.2.2.5.5.5s.5-.2.5-.5-.2-.4-.5-.5h-.2c-.3-.2-.6-.4-.6-.8s.4-.7.8-.7.6.2.7.4l-.3.2h0Z"/>
      <path class="st30" d="M288.8,549.2c0,.8-.6,1.4-1.4,1.4s-1.4-.6-1.4-1.4.6-1.4,1.4-1.4,1.4.6,1.4,1.4ZM288.5,549.2c0-.6-.5-1.1-1.1-1.1s-1.1.5-1.1,1.1.5,1.1,1.1,1.1,1.1-.5,1.1-1.1Z"/>
      <path class="st30" d="M290.6,550.2h.8v.3h-1.2v-2.7h.3v2.4h0Z"/>
      <path class="st30" d="M293,547.8v1.6c0,.5.1.9.7.9s.7-.4.7-.9v-1.6h.3v1.7c0,.6-.4,1.1-1,1.1s-1-.5-1-1.1v-1.7h.3Z"/>
      <path class="st30" d="M297,550.5h-.3v-2.4h-.6v-.3h1.6v.3h-.6v2.4h0Z"/>
      <path class="st30" d="M299.3,550.5h-.3v-2.7h.3v2.7Z"/>
      <path class="st30" d="M303.6,549.2c0,.8-.6,1.4-1.4,1.4s-1.4-.6-1.4-1.4.6-1.4,1.4-1.4,1.4.6,1.4,1.4ZM303.3,549.2c0-.6-.5-1.1-1.1-1.1s-1.1.5-1.1,1.1.5,1.1,1.1,1.1,1.1-.5,1.1-1.1Z"/>
      <path class="st30" d="M305,547.7l2.1,2.2v-2h.3v2.8l-2.1-2.2v2h-.3v-2.9h0Z"/>
      <path class="st30" d="M310.2,548.3c-.1-.2-.2-.3-.4-.3s-.5.2-.5.4.2.3.4.4h.2c.4.2.7.5.7.9s-.4.8-.9.8-.8-.3-.9-.8h.3c0,.2.2.5.5.5s.5-.2.5-.5-.2-.4-.5-.5h-.2c-.3-.2-.6-.4-.6-.8s.4-.7.8-.7.6.2.7.4l-.3.2h0Z"/>
    </g>
  </g>
</svg>